<?xml version="1.0" encoding="utf-8"?>
<!-- Generator: Adobe Illustrator 25.4.1, SVG Export Plug-In . SVG Version: 6.00 Build 0)  -->
<svg version="1.1" id="svg2" xmlns:svg="http://www.w3.org/2000/svg"
	 xmlns="http://www.w3.org/2000/svg" xmlns:xlink="http://www.w3.org/1999/xlink" x="0px" y="0px" viewBox="0 0 800 800"
	 style="enable-background:new 0 0 800 800;" xml:space="preserve">
<style type="text/css">
	.st0{opacity:0.37;}
</style>
<g class="st0">
	<path d="M369.9,467c18.5,7.7,37.5,14.8,55.5,23.7c19,9.4,37.3,21.7,53.4,35.6c27.8,24,50.6,55.3,63.9,89.7
		c-17.6,8.6-36.7,15.6-55.5,19.5c-23.5,4.8-48.5,2.2-71.5-3.9c-5.1-20.7-13.5-40.5-24.7-58.6c16.7,9.4,33.4,15.5,51.8,20.4
		c17.1,4.7,34.9,6.4,52.4,9.2c2.8,0.4,3.7-4.2,1-4.8c-33.3-8-63.4-29.6-90.6-49.7c-24.9-18.4-47.1-40.1-65.6-64.9
		c7-3.2,13.8-6.6,20.4-10.5C363.4,470.9,366.6,469,369.9,467z"/>
	<path d="M143.4,513.7c15.2,11.7,28.4,26.8,39.1,42.7c18.8,27.9,30.9,61.6,33.6,95.4c-47.2-3.4-95.6-16.7-125.1-56.4l0,0
		c-14-18.9-20.6-43.2-15.9-66.5c1-5.2,2.7-10.2,4.7-15c1.3,18.8,8.5,37.1,21.6,51.3c8.7,9.5,20.2,17.3,31.1,24.1
		c11.2,7,23.4,11.9,34.6,18.9c2.7,1.7,5.1-2.1,2.7-4c-9.7-7.6-17.3-16.1-25.4-25.3c-6.9-7.9-13.6-16.1-18.1-25.7
		c-8.3-17.5-16.4-35.5-12.2-53.5c1.5,0.1,3,0.3,4.5,0.7C127.8,502.7,135.9,508,143.4,513.7z"/>
	<path d="M244.4,621.6c-3.2-16.2-8-31.9-14.6-47.1c4.3,3.2,8.7,6.3,13.3,9c31.1,18.6,64,32,98,44.3c0.7,0.3,1.3-0.8,0.6-1.2
		c-31.1-15.6-58.9-38.1-83.7-62c-19.9-19.1-39.1-38.1-56.9-58.9c16.1,1.5,32.3,1.5,48.4,0.2c3.3-0.3,6.6-0.7,9.9-1
		c2.2,0.7,4.4,1.4,6.6,2.1c23.5,8.2,45.9,20.9,64.5,37.4c35.6,31.8,57,78.6,59.2,126.1c-25.3,0.7-50.9-3.3-74.8-11.4l0,0
		c-25.9-8.7-47.1-23.1-70-37.3C244.6,621.8,244.5,621.7,244.4,621.6z"/>
	<path d="M414.3,419.1L414.3,419.1L414.3,419.1z"/>
	<path d="M445.3,394.4c-11.3-2.3-23.2-6.2-33.4-11.6c-6.3-3.4-12.1-7.9-19-10.1c-0.2-0.1-0.4-0.1-0.6-0.2
		c-9.8-9.2-20.3-17.7-31.4-25.1c4.7-1.1,9.3-2.2,13.9-3.5c21.8-6.1,43.3-14.2,63.1-25.3c11.1-6.2,21.9-13.2,32.4-20.9
		c1.9,0.9,3.9,1.8,5.7,2.6c5.8,2.7,11.4,5.7,17.1,8.5c11.2,5.4,21.9,11.9,31.9,19.3c19.3,14.4,38.4,33.8,49.6,55.4
		c6.4,12.2,4.5,20.5-5.5,29.5c-10.6,9.5-22.7,17.8-34.7,25.5c-13.3,8.4-27,16.3-41.2,23.3c-10.3,5.1-22,8.8-32.3,14.2
		c-7.4-4-14.9-7.7-22.7-11c-16-6.6-31.8-10.9-48.3-12c7.2-5.8,13.7-12.2,18.5-19.5c3.2-4.9,5.1-9.7,6-14.5
		c8.2,2.3,16.6,3.9,25.3,4.4c35.5,2.2,68-15.2,100.2-27.3c1.9-0.7,0.8-4-1.2-3.5C507.9,400.7,476.4,400.6,445.3,394.4z"/>
	<path d="M208.3,432.5c0.4,0.1,0.7,0.3,1.1,0.4c23.5,5.6,46.1,6,69.8,1.4c11.3-2.2,22.5-5.5,33.4-9.1c10.2-3.3,19.8-8.6,29.4-13.3
		c1.9-0.9,0.4-3.5-1.4-2.8c-33.1,11.4-69.3,8.6-103,0.4c3.5-2.9,6.9-5.9,10.3-9c5.7-5.3,10.8-12.1,17.1-16.5
		c8.1-5.6,4.7-17.2-1.5-22.2c-6.4-5.1-14.1-8.3-21.1-12.3c-6.2-3.6-12.3-7.5-18.3-11.4c-6.1-4-12.2-8.1-18.3-12.1
		c2.2,0.2,4.5,0.4,6.8,0.7c8.9,1.4,18,2.1,26.9,3.5c18.5,2.9,36.7,8.3,54.2,14.9c30.5,11.6,58.6,29.9,80.9,53.8
		c4.4,4.8,11,10,6.6,16.4c-4.1,5.9-11,10.3-16.7,14.6c-13.1,9.9-27.2,18-42.1,25c-30.1,14.2-61.9,22.2-95.3,22.2
		c-16.5,0-33.1-1.5-49.2-5c-8.9-1.9-17.7-4.5-26.3-7.5c-0.2-0.1-0.4-0.1-0.6-0.2c14-5.7,27.5-12.4,40.3-20.3
		C197,440.5,202.7,436.6,208.3,432.5z"/>
	<path d="M343.1,249.8c15.9-7.5,32.1-16.2,49-21.1c16.5-4.8,33.4-7.9,50.3-10.8c1.2-0.2,0.9-1.8-0.1-2l0,0
		c-18.8-3.3-37.4-2.5-56.4-1.2c-18.2,1.2-35.9,3.2-53.3,9c-8.4,2.8-16.9,6.1-25.3,9.7c14-17.1,25.3-35.9,33.6-56.5
		c28.7-3.6,57.7-5.9,86.6-1.5c28.2,4.4,57.5,14.9,80.8,32.2c-22.9,27.7-49.3,51.7-80.5,70c-18,10.5-36.6,19.9-56.3,26.8
		c-9.5,3.3-19.2,6-29.1,8.1c-3.9,0.8-8.3,1.3-12.7,2.2c-8.4-3.8-17-7.1-25.8-10c-10.8-3.5-21.9-5.9-33.1-7.5
		c9.1-7.9,18.4-15.6,28.5-22.5C313.2,265.3,328,256.9,343.1,249.8z"/>
	<path d="M565.4,523.2c29.4-5.1,56.8-17.7,82-33.4c2-1.2,0.6-4.3-1.7-3.3c-25.7,11.6-53.9,15.1-81.8,13.5c-13.8-0.8-27.8-3-41.3-5.7
		c-4.7-0.9-9.5-2.4-14.3-3.9c13.5-6.4,26.7-13.4,39.3-21.4c12.2-7.7,24.1-16,35.5-24.9c5.8-4.6,11.5-9.5,16.2-15.2
		c17.1,11,35.8,20.1,52.3,32.3c4.9,3.6,9.7,7.3,14.4,11.1c4.1,3.3,11.6,8,14.1,12.9c3.6,7-7,18.1-10.9,23.8
		c-13.4,19.8-30.4,37.7-49.5,52.1c-9.9,7.5-20.5,13.7-31.8,19c-6.8,3.2-14.3,5.5-21.5,7.9c-10.9-22.9-25.1-43.8-42.4-62.4
		C538,526.6,551.8,525.6,565.4,523.2z"/>
	<path d="M216.9,370.9c5.3,3.3,10.7,6.7,16.4,9.6c-1.3,1.4-2.6,2.7-3.7,4c-4.3,4.8-8.8,9.6-13.5,14.1c-2.3,2.2-4.8,4.3-7.3,6.4
		c-2.7,1.1-5.1,2.9-6.8,5.3c-5.5,4.2-11.3,8.1-17,11.7c-21,13.3-44.1,25.6-69.1,28.6c-22.2,2.7-43.2-5.3-51.3-27.3
		c-0.8-2.1-1.3-4.3-1.8-6.5c16.2-14.6,35.9-25.3,56.2-32.9c10.1-3.8,21.3-6,31.9-6.9c11.9-1.1,25.4-0.6,36.9,2.4
		c1.7,0.4,2.4-1.8,0.9-2.5c-12.2-5.5-23.7-10.2-36.9-12.7c-12.5-2.3-24.6-2.6-37.2-2.2c-17.5,0.6-34.1,5.6-49.3,13.8
		c0.1-0.8,0.3-1.5,0.5-2.3c1.2-6.4,1.1-13.6,3-19.7c11.3-15.8,29.4-27.1,49-27.9c23.6-1.1,46.1,10.9,65.4,23.1
		C194.6,356.2,205.5,363.9,216.9,370.9z"/>
	<path d="M681.4,327.5c-0.3,2.6-0.6,2.5-3.5,3.9c-10.7,5.1-24.2,7-35.8,9.2c-12.7,2.4-25.9,4.2-38.8,3.3c-8.7-0.6-17.4-2.7-25.9-2.3
		c-14.7-15.4-32.4-28.5-51-38.4c-10.5-5.6-21.4-11.1-33-14c-1.1-0.3-2.2-0.6-3.4-0.9c6-5.2,11.8-10.6,17.3-16.3
		c0.2,0,0.4,0.1,0.6,0.1c5.6,0.4,11.7-1.4,17.4-2c21.4-2.3,44.2,0.4,65.2,4.2c21.5,3.9,45.6,12.1,63,25.6c1.7,1.3,3.9-1.3,2.4-2.8
		c-9-8.9-17.4-18.3-27.5-26c-10.1-7.6-21-14-32.3-19.6c-19-9.4-39.8-13.5-60.9-14.1c1.1-1.7,2.3-3.3,3.4-4.9
		c5-7.9,2.6-17.3-4.6-22.8c-3.4-2.6-6.8-5-10.3-7.4c4,0.4,8,0.9,11.9,1.5c13.8,2.1,27.5,4.7,40.7,9.1c46.1,15.6,82.7,52.2,100,97.5
		l0,0C678.3,315.1,682,322.6,681.4,327.5z"/>
	<path d="M676.7,446.2c-20.4-10.8-44.9-21.7-69.1-24.4c1.2-7.6,0.3-14.8-2-21.8c2.9,0.9,5.8,1.8,8.6,2.6c12.3,3.5,25.3,5.3,38.1,5.1
		c13-0.3,25.1-2.3,37.7-5.1c12-2.7,23-8,34.3-12.7c1.4-0.6,1.2-3-0.4-2.8c-11.3,1.8-23,0.9-34.3,0c-10.8-0.9-22-3.2-32.5-5.9
		c-6.5-1.7-13-3.6-19.5-5.6c8-1.1,15.8-2.9,23.3-5.5c14.5-5,31.1-11.2,39-25.5c6.6-11.9,3.9-24.5-0.9-36.3c4.6,4.8,9,9.8,13.3,15
		c13.2,16,23.9,34.4,33,53c3.9,7.9,9.4,17.1,10.9,25.9c1.3,7.3-7,11.3-11.3,16.5c-12.6,15.2-26.8,43.5-44.9,52.9
		c-0.5,0.3-1.1,0.6-1.6,0.9C693,469.2,681.7,448.8,676.7,446.2z"/>
	<path d="M123.6,295c-7.8-0.1-15.6,0.6-23.4,2.7c-1,0.3-1.9,0.7-2.8,1c0.2-0.9,0.4-1.8,0.7-2.8c1.1-4.3,2.3-8.5,3.4-12.7
		c2.3-8.7,4.4-17.3,7.7-25.6c3.2-8.2,7.4-15.9,12.1-23.3c2.5-3.9,5.4-7.4,8.1-11.1c2.9-3.9,5.5-7.8,8.8-11.5
		c1.4-1.5-0.4-3.6-2.1-2.4c-4,3-8.3,5.8-12.2,9.1c-3.5,3-6.6,6.3-9.9,9.5c-7,6.7-13.3,14.2-19.6,21.6c-5.7,6.8-11.2,13.8-15.8,21.4
		c2.3-16.6,8.1-32.9,17.2-47c16.2-25.1,42.5-43.7,71.5-51c-5.5,20.5-7.4,41.9-11.9,62.7C150.5,257.7,140.6,279.8,123.6,295z"/>
	<path d="M312.1,166.2c-10.9,32-28.6,63.6-51.4,88c-13.3,14.3-29.6,26.5-46.4,36.3c-8.3,4.9-17,9.4-26,12.9c-4.8,1.9-10,3-15.1,4.3
		c-1.5-0.7-2.9-1.3-4.4-1.9c2.1-3.5,3.8-7.2,5.8-10.6c3.1-5.3,6.5-10.5,9.9-15.6c6.8-10.1,13.3-20.6,21-30
		c16.2-19.5,34.3-37.3,55.9-50.8c2-1.2,0.6-4.3-1.7-3.3c-24,11-47.8,23.7-68.2,40.5c-3,2.4-5.9,4.9-8.7,7.3
		c4.8-18.5,6.9-37.6,11.3-56.1c6.7-3.3,13.2-7.7,19.4-10.6c11.5-5.4,23.1-9.6,35.6-12C270.6,160.6,291.6,160.6,312.1,166.2z"/>
</g>
</svg>
