<?xml version="1.0" encoding="utf-8"?>
<!-- Generator: Adobe Illustrator 25.4.1, SVG Export Plug-In . SVG Version: 6.00 Build 0)  -->
<svg version="1.1" id="Capa_1" xmlns="http://www.w3.org/2000/svg" xmlns:xlink="http://www.w3.org/1999/xlink" x="0px" y="0px"
	 viewBox="0 0 80 80" style="enable-background:new 0 0 80 80;" xml:space="preserve">
<style type="text/css">
	.st0{opacity:0.23;}
	.st1{fill:#050506;}
</style>
<g class="st0">
	<path class="st1" d="M2.8,42.9c0,3.9,5.3,0.3,7.5,1.1c11,1,6.7,1.8,7.2-12.8c0.5-2.4-3.2-1.2-3-0.5c0,3.1,0.6,4-4,3.9l1.8-16.6
		c0.1-1.7-1.2-2.3-2.9-2.2c-3.6,0.3-4.6,0.5-5.7,0.5C1.2,17.4,3.2,20,2.9,26.6c0,3.7,0,9.3-0.2,11.5c0.1,0,0.1,0,0.1,0.1
		c-0.2,0.1-0.1,0.5,0,0.7C2.7,38.9,2.8,42.8,2.8,42.9z"/>
	<path class="st1" d="M29.4,43.9c11-3.5,7.7-20.9,7-27c-0.2-1.6-5.5-1.9-7.5-1.1c-11.5,2.9-8.5,17.4-6.8,24.6
		C20.7,47.8,26,44.9,29.4,43.9z M27.3,21.4L27.3,21.4C30.7,27.1,33,33.7,30,40h-0.2C27,33.5,25.3,27.1,27.3,21.4z"/>
	<path class="st1" d="M40.4,29.3c0,3.9-0.1,6.9-0.2,8.9c0.1,0,0.1,0,0.1,0.1c-0.2,0.1-0.1,0.5,0,0.7c0,1.2-0.7,5.9,0.9,5.9
		c3.4-2,14.2,1.1,13.9-1.3c0,0-0.3-12.2-0.3-12.2c0.5-2.4-3.2-1.2-3-0.5c0,3.1,0.6,4-4,3.9l1.8-16.6c0-1.5-0.8-2.2-2.4-2.2
		C36.2,16.3,41.1,16.4,40.4,29.3z"/>
	<path class="st1" d="M73.9,43.7c1.1-0.3,3.5,1.4,3.9-0.6c-0.4-3.7-0.7-6.1-0.9-7.1c-0.7-9.6-1.2-8.8-2.6-18.5
		c-1.2-2.1-4,0.4-6.3-0.2c0,0-2.3,0-2.3,0c-1.4,0.5-4.9-1.8-5.5,0.5c0,0.6,0.4,3.3,0,4.4c-2.2,9.4-2.3,14-2.4,21.4
		c0.3,0.5,0.7,0.8,1.2,0.8c3.8-0.2,5.3-0.4,6-0.2c2.1,0.2,1.3-4.7,3-5.2C70.5,43.6,66.9,45.1,73.9,43.7z M66.3,32.7
		c0-1.8,0.6-5.5,1.7-11.3h0.1c1.1,5,1.7,7.7,1.7,8.2C68.8,30.3,67.6,31.3,66.3,32.7z"/>
	<path class="st1" d="M10.8,48c-9.2,1.9-7.8-2.8-7.3,10h0c0.3-0.1-0.4,3.2,0.6,3.8c0,0,1.2,0,1.2,0c1.2,0,1.8-0.1,1.8-0.4
		c-0.1-1.6-0.6-2.5-0.2-3.5c3.4-1.1,4.9-1.6,4.9-2.4C11,53.5,11.8,50,10.8,48z M7,55.8L7.1,51h0C7.9,54.1,9.7,54.5,7,55.8z"/>
	<path class="st1" d="M21.4,54c0.2-0.7-0.8-3.2-0.9-5.3c-0.6-1-1.9,0.2-3-0.1c-1.1,0-2.1,0-3.3-0.3c-0.8,0.2-0.4,0.9-0.4,1.8
		c-0.9,4.5-1.3,7.5-1.3,11.2c1.1,0.9,3.3-0.1,3.5,0.3c0.9,0.3,0.7-2.2,1.5-2.5c1.2,2.2-0.3,3,2.9,2.3c0.5-0.2,1.7,0.7,1.9-0.3
		C21.9,58.3,21.6,55.4,21.4,54z M16.7,56.1c0-0.9,0.3-2.7,0.8-5.4h0c0.6,2.4,0.8,3.7,0.8,3.9C17.9,54.9,17.4,55.4,16.7,56.1z"/>
	<path class="st1" d="M30.4,54.7c-2.7,0,0.5,2.7-3.1,2.3l0.9-8c0-0.8-0.6-1.1-1.4-1.1c-1.7,0.2-2.2,0.2-2.7,0.2
		c-1.3,0,0.1,9-0.5,10.5c0,0,0,0,0,0c-0.1,0,0,0.3,0,0.3c0,0.6-0.4,2.8,0.5,2.9c2.3-0.5,3.7-0.5,6.2-0.1c0.3,0,0.5-0.2,0.5-0.6
		C30.6,60.9,30.9,54.7,30.4,54.7z"/>
	<path class="st1" d="M40.4,56.3c-0.4-1.3,0.8-7.9-1.6-8.1c-2.4,1,0.9,7.2-2,7.9c-0.1-0.1-0.2-0.1-0.2-0.2c-0.3,0-0.4-2.5-0.5-7.5
		c-0.2-0.2-0.3-0.2-0.3-0.3c-0.2,0-0.4,0-0.4,0.1c-2,0.1-3,0.1-3,0.2c-0.4,0-0.6,0.7-0.7,2.1c0,1.8-0.1,4.7,0,6.3
		C31.2,63.6,41.4,63.4,40.4,56.3z"/>
	<path class="st1" d="M45.6,57.9c3.4-1.1,4.9-1.6,4.9-2.4c-0.8-1.9,0.1-5.5-1-7.4c-9.2,1.9-7.8-2.8-7.3,10h0c0.3,0-0.4,3.2,0.6,3.8
		c0,0,1.2,0,1.2,0c1.2,0,1.8-0.1,1.8-0.4C45.6,59.8,45.2,58.9,45.6,57.9z M45.9,51L45.9,51c0.7,3.1,2.5,3.5-0.2,4.8L45.9,51z"/>
	<path class="st1" d="M58.7,48.2c-2.8,0.5,0.8,7.3-2.2,7.9c-0.1-0.1-0.2-0.1-0.2-0.2c-0.3,0-0.4-2.5-0.5-7.5
		c-0.2-0.2-0.3-0.2-0.3-0.3c-0.2,0-0.4,0-0.4,0.1c-2,0.1-3,0.1-3,0.2c-0.4,0-0.6,0.7-0.7,2.1c-0.1,5.2-1.3,13.1,6.4,10.8
		C60.6,61.3,61,48.9,58.7,48.2z"/>
	<path class="st1" d="M68.5,54.7c-2.7,0,0.5,2.7-3.1,2.3l0.9-8c0-0.8-0.6-1.1-1.4-1.1c-1.7,0.2-2.2,0.2-2.7,0.2
		c-1.3,0,0.1,9-0.5,10.5c0,0,0,0,0,0c-0.1,0,0,0.3,0,0.3c0,0.6-0.4,2.8,0.5,2.9c2.3-0.5,3.7-0.5,6.2-0.1c0.3,0,0.5-0.2,0.5-0.6
		C68.8,60.9,69.1,54.7,68.5,54.7z"/>
	<path class="st1" d="M78.1,53.6c-0.4-3.2-0.5-4.9-0.5-5.1c-4.1-3-9.3,2.9-7.7,7.6c0.7,3.5,0.8,2.9,0.6,5.2c0.1,2,3.2,0.3,3.6,0.3
		C77.2,60.2,78.5,57.1,78.1,53.6z M74.5,59.6L74.5,59.6c-1.5-3.1-2.3-6.2-1.3-9h0C74.8,53.4,75.9,56.6,74.5,59.6z"/>
</g>
</svg>
