<?xml version="1.0" encoding="utf-8"?>
<!-- Generator: Adobe Illustrator 25.4.1, SVG Export Plug-In . SVG Version: 6.00 Build 0)  -->
<svg version="1.1" id="Capa_1" xmlns="http://www.w3.org/2000/svg" xmlns:xlink="http://www.w3.org/1999/xlink" x="0px" y="0px"
	 viewBox="0 0 100 100" style="enable-background:new 0 0 100 100;" xml:space="preserve">
<style type="text/css">
	.st0{fill:#FFFFFF;}
	.st1{fill:#11A4DE;}
	.st2{fill:#151B31;}
	.st3{clip-path:url(#SVGID_00000035504599374457134300000008861670220870601883_);}
	.st4{clip-path:url(#SVGID_00000038411336435117716550000018218230293390382756_);}
	.st5{clip-path:url(#SVGID_00000091730116239378575220000014007589731928201627_);}
	.st6{fill:#85754E;}
</style>
<g>
	<g>
		<rect x="0" class="st0" width="100" height="100"/>
		<polygon class="st1" points="0.2,67.8 100,43.8 100,100 0,100 		"/>
		<g>
			<g>
				<path class="st0" d="M31.8,71.9c-0.1,0.2-0.2,0.3-0.4,0.5c-0.3,0.2-0.6,0.3-0.8,0.4c-0.9,0.2-1.3-0.2-1.3-0.8
					c0-0.5,0.2-0.8,0.4-0.9c0.1-0.1,0.3-0.3,0.9-0.5c0.2,0,0.5-0.1,0.8,0c0.2,0.1,0.3,0.2,0.4,0.3l-0.3,0.1c0-0.1-0.1-0.2-0.2-0.2
					c-0.1-0.1-0.4-0.1-0.6,0c-0.5,0.1-1,0.4-1,1c0,0.2,0.1,0.4,0.2,0.6c0.1,0.1,0.4,0.2,0.8,0.1c0.3-0.1,0.5-0.2,0.7-0.3
					c0.1-0.1,0.2-0.2,0.2-0.3L31.8,71.9z"/>
				<path class="st0" d="M32.8,70.2l1.9-0.4V70l-1.6,0.3V71l1.6-0.3v0.2l-1.6,0.3V72l1.7-0.4v0.3l-2,0.4V70.2z"/>
				<path class="st0" d="M35.8,69.5l1.4-0.3c0.2,0,0.4-0.1,0.6,0c0.1,0,0.2,0.2,0.2,0.4c0,0.5-0.4,0.7-0.6,0.7l0.8,0.7l-0.4,0.1
					l-0.7-0.7l-1,0.2v0.8l-0.3,0.1V69.5z M36.1,69.7v0.8l1-0.2c0.2,0,0.4-0.1,0.5-0.3c0.1-0.1,0.1-0.2,0.1-0.2c0-0.1,0-0.2-0.1-0.2
					c-0.1-0.1-0.2-0.1-0.4-0.1L36.1,69.7z"/>
				<path class="st0" d="M40.8,68.5l0.3-0.1l-1,2.3l-0.3,0.1l-1-1.9l0.3-0.1l0.7,1.4c0.1,0.1,0.1,0.1,0.1,0.2c0-0.1,0-0.1,0.1-0.2
					L40.8,68.5z"/>
				<path class="st0" d="M42,68.2l1.9-0.4v0.3l-1.6,0.3v0.6l1.6-0.3V69l-1.6,0.3V70l1.7-0.4v0.3l-2,0.4V68.2z"/>
				<path class="st0" d="M45,67.6l1.9-0.4v0.3l-1.6,1.9l1.7-0.4v0.3l-2.1,0.4v-0.2l1.6-1.9L45,67.8V67.6z"/>
				<path class="st0" d="M48.7,66.8l0.3-0.1l1.1,1.9l-0.3,0.1l-0.3-0.5l-1.3,0.3L48,69.1l-0.3,0.1L48.7,66.8z M48.9,67.2
					C48.9,67.2,48.9,67.1,48.9,67.2c-0.1-0.1-0.1-0.1-0.1-0.2c0,0,0,0.1,0,0.1c0,0,0,0.1-0.1,0.1l-0.4,1l1-0.2L48.9,67.2z"/>
				<path class="st0" d="M53.4,65.8l0.3-0.1l1.1,1.9l-0.3,0.1l-0.3-0.5l-1.3,0.3L52.7,68l-0.3,0.1L53.4,65.8z M53.7,66.2
					C53.7,66.2,53.6,66.1,53.7,66.2c-0.1-0.1-0.1-0.1-0.1-0.2c0,0,0,0.1,0,0.1c0,0,0,0.1-0.1,0.1l-0.4,1l1-0.2L53.7,66.2z"/>
				<path class="st0" d="M55.7,65.3l1.4-0.3c0.2,0,0.4-0.1,0.6,0c0.1,0,0.2,0.2,0.2,0.4c0,0.5-0.4,0.7-0.6,0.7l0.8,0.7L57.7,67
					L57,66.3l-1,0.2v0.8l-0.3,0.1V65.3z M56,65.5v0.8l1-0.2c0.2,0,0.4-0.1,0.5-0.3c0.1-0.1,0.1-0.2,0.1-0.2c0-0.1,0-0.2-0.1-0.2
					c-0.1-0.1-0.2-0.1-0.4-0.1L56,65.5z"/>
				<path class="st0" d="M61,66c0,0-0.1,0.1-0.1,0.1c-0.2,0.1-0.4,0.3-0.8,0.4c-0.7,0.2-1.2-0.2-1.2-0.9c0-0.3,0.1-0.5,0.2-0.6
					c0.2-0.3,0.6-0.6,1.1-0.7c0.5-0.1,0.8,0,0.9,0.1c0.1,0.1,0.2,0.1,0.2,0.2l-0.3,0.2c0,0-0.1-0.1-0.1-0.1
					c-0.2-0.1-0.4-0.1-0.7-0.1c-0.5,0.1-1,0.5-1,1c0,0.2,0.1,0.4,0.1,0.5c0.2,0.3,0.7,0.2,0.8,0.2c0.2,0,0.5-0.2,0.7-0.4
					c0.1-0.2,0.1-0.3,0.2-0.4l-0.9,0.2v-0.3l1.2-0.2v1.1L61,66.3V66z"/>
				<path class="st0" d="M62.4,63.9l1.9-0.4v0.3l-1.6,0.3v0.6l1.6-0.3v0.2l-1.6,0.3v0.7l1.7-0.4v0.3l-2,0.4V63.9z"/>
				<path class="st0" d="M65.7,63.2l1.4,1.2c0.1,0.1,0.1,0.1,0.2,0.2c0-0.1,0-0.2,0-0.3v-1.5l0.3-0.1v2.1l-0.3,0.1l-1.5-1.3
					c-0.1-0.1-0.1-0.1-0.2-0.2c0,0.1,0,0.2,0,0.4v1.4l-0.3,0.1v-2.1L65.7,63.2z"/>
				<path class="st0" d="M68.5,62.6l2-0.4v0.3l-0.9,0.2v1.9l-0.3,0.1v-1.9l-0.9,0.2V62.6z"/>
				<path class="st0" d="M71.4,62l0.3-0.1V64l-0.3,0.1V62z"/>
				<path class="st0" d="M73.2,61.6l1.4,1.2c0.1,0.1,0.1,0.1,0.2,0.2c0-0.1,0-0.2,0-0.3v-1.5l0.3-0.1v2.1l-0.3,0.1l-1.5-1.3
					c-0.1-0.1-0.1-0.1-0.2-0.2c0,0.1,0,0.2,0,0.4v1.4l-0.3,0.1v-2.1L73.2,61.6z"/>
				<path class="st0" d="M77.1,60.8l0.3-0.1l1.1,1.9l-0.3,0.1l-0.3-0.5l-1.3,0.3L76.3,63L76,63.1L77.1,60.8z M77.3,61.2
					C77.3,61.1,77.2,61.1,77.3,61.2C77.2,61,77.2,61,77.2,61c0,0,0,0.1,0,0.1c0,0,0,0.1-0.1,0.1l-0.4,1l1-0.2L77.3,61.2z"/>
			</g>
			<path class="st2" d="M43.8,41.9c-0.1-1.2,0.8-2.4,2-2.7c1.1-0.2,2.1,0.6,2.2,1.8c0.1,1.2-0.8,2.4-1.9,2.6
				C44.9,43.9,43.9,43.1,43.8,41.9 M20.3,69.7c1.4,0.2,3.4,0.4,4.9-1.3c-0.2,3.3-2.2,5.6-5.2,5.5c-3-0.1-4.9,0-6.2,1.7l-0.3,0.4
				c0.3-3.1,1.2-5.1,3.7-5.9c-2.2-0.4-8-4.2-5.9-15.5c1.4-7.3,5.2-11.4,8.4-12.6C18.7,43,18.1,43.8,17,46
				c-3.4,6.6-3.1,18.7,2.3,17.7c5.4-0.9,7.8-9.6,7.1-15.7c-0.7-6.2-4.6-3.8-5.5-0.9c1.1-1.4,4.2-0.3,3.4,5.8
				c-1.1,8.2-7.9,9.2-7.3,0.6c0.6-7.7,4-11,6.5-11.7c2.6-0.8,8.4,2.6,5.9,15.6C28.1,63.1,25.6,68.1,20.3,69.7 M20.4,50.3
				c0,0.8,0.5,1.3,1,1.1c0.5-0.2,0.9-1.1,0.9-1.9c0-0.8-0.5-1.4-1-1.1C20.7,48.6,20.3,49.5,20.4,50.3 M82.4,55.1
				c-1.9,0.3-2.8-0.6-3.2-1.6c-0.7,0.9-1.3,1.7-1.8,2.1l0,0c-1.6,1.2-3.6,1.4-4.5,0.9c-2.4-1.5-2-5.8-2-5.8s-1.8,4.6-3.4,6.7
				c-1.9,2.5-3.4,1.1-3.1-1.2c0.5-3.3,1.7-11.4,1.7-11.4c0.3-1.7-0.5-1.7-1.1-0.5c-0.6,1.1-0.8,1.6-1.1,3.1L62.2,59l-3.6,0.8
				l2.1-14.3c0.2-1.2-0.6-1.1-1.3,0c-0.6,0.9-0.8,2.2-0.8,2.2s-1.7,12.2-1.8,12.6l-3.6,0.8l1.2-8c-1,2.9-2.4,5.9-3.8,7.9
				c-1.6,2.2-3.3,1.5-3-0.4l0.7-6.1c-0.5,1.7-2.5,5.9-4,7.9c-1.6,2.2-3,1.2-2.8-0.6l0.8-6.2c-1.5,3.7-2.8,6.4-4,8.1
				c-1.4,2-3.1,1.3-2.9-0.7l0.4-4c-0.5,1.5-2.1,4.5-3,5.8c-1.3,1.9-3.4,2.2-2.9-1.5l2.2-15.2l3.6-0.8c-0.1,0.6-1.6,11.1-1.8,12.3
				c-0.2,1.2,0.5,0.8,0.9,0.2c0,0,1-1.6,1.6-4.4l1.2-8.4l3.6-0.8c0,0.1-1.2,9.4-1.6,11.6c-0.4,2.1,0.6,1.5,1.1,0.4
				c0.6-1.2,1.5-3.9,1.9-5.4c0.5-1.5,1.1-7.1,1.1-7.1l3.6-0.8c-0.2,1.8-1.7,11.8-1.7,11.8c-0.3,1.6,0.4,1.4,0.9,0.5
				c1.5-2.8,2.3-6.5,2.5-7.6c0.2-1.1,1.6-11.3,1.6-11.3l3.5-0.7c-0.2,0.9-2.5,17.5-2.5,17.5c-0.4,2.4,0.7,1.6,1.3,0.1
				c0.3-0.8,1.6-4.4,1.7-4.7l1.1-7.3l3.5-0.7l-0.5,3.2c0,0,0.8-1.5,1.9-2.7c1.8-2,3.5-2.4,3.6,0.1c0,0,0.1,1.2,0,1.5
				c0,0,0.8-1.4,1.4-2.3c2.4-3.3,4.6-2.7,4.3,0.2c0,0-1.3,8.9-1.4,9.4c-0.1,1.1,0.3,1.6,0.8,0.7c0,0,1-1.8,1.3-3.3
				c0.7-4.5,2.4-10.3,6.7-11.2c4.3-0.8,4,5.2,3.3,7.1c-0.7,1.8-1.9,4.4-6.1,4.8c0,0-0.1,0.8-0.1,0.9c0,0-0.2,2-0.2,2.8
				c0.1,0.8,0.8,2.6,2.6,1.5c0.4-0.2,1.1-1,1.8-2.1c-0.1-0.5-0.2-0.9-0.2-1.3c0-0.1,0-0.2,0-0.3c0-0.1,0-0.2,0-0.4
				c0-0.1,0-0.1,0-0.1l0,0c0.1-1.2,1-2.2,2.1-2.5c0.3-0.1,0.7-0.1,0.9,0c0.7-1.1,1.3-2.2,1.9-3.3c-1.4-3-1.1-5.5-1.1-5.5
				c0.3-3.3,3-3.7,3-3.7s1.9-0.5,2.2,1.4c0.2,1.1-0.7,2.9-1.4,4.1c0,0-0.1,0.1-0.1,0.2c0.7,1.5,1.8,4.3,1.9,6.4
				C88.5,51.2,86.3,54.4,82.4,55.1 M74.8,49.2c0,0,0.3,0,0.9-0.2c0.8-0.2,1.2-1,1.2-1.7c0,0,1-6.7,1.1-7.6c0-0.1,0-0.2,0-0.3
				c0-0.4-0.2-0.7-0.6-0.7c-0.2,0-0.3,0-0.5,0.1c-0.1,0.1-0.2,0.1-0.3,0.2c-0.2,0.2-0.4,0.5-0.5,0.8c-0.1,0.3-0.1,0.6-0.2,0.8
				C76,40.6,75.2,46.3,74.8,49.2 M85.5,50.1c-0.1-1,0-1.5-1.4-4.2c-0.5,0.9-1.1,1.9-1.7,2.9c0.5,0.3,0.9,1,0.9,1.7
				c0.1,1.3-0.9,2.6-2.2,2.9c-0.6,0.1-1.1,0-1.6-0.3c0.4,0.8,1.1,1.7,2.7,1.4C84.6,53.9,85.6,51.7,85.5,50.1 M86.2,41
				c0,0,1.2-2.4,1-3.4c-0.3-1.1-1.3-0.6-1.3-0.6c-1.5,0.8,0.1,3.9,0.1,3.9c0,0.1,0.1,0.1,0.1,0.2C86.1,41.1,86.2,41,86.2,41"/>
			<g>
				<defs>
					<path id="SVGID_1_" d="M25.8,69.1l0,0.4l0,0.1c-0.4,3.1-2.3,5-5.1,4.9c-3-0.1-4.9,0-6.2,1.6l-0.1,0.1l-0.2,0.3l0,0.4l0.5-0.6
						c1.2-1.6,3.1-1.7,6.1-1.6c3,0.1,5.1-2.1,5.3-5.6l0-0.3L25.8,69.1z M33.4,65.4c-0.7,1-1.5,1.5-2.1,1.3c-0.1,0-0.2-0.1-0.3-0.2
						l0,0l0,0c-0.1,0-0.1,0-0.2,0l-0.1,0l0,0.1c0.2,0.2,0.3,0.4,0.5,0.4c0.1,0,0.2,0.1,0.4,0.1c0.6,0,1.4-0.5,2-1.4
						c0.4-0.5,0.8-1.3,1.3-2.2l0,0c0,0,0-0.1,0-0.1l0-0.4C34.4,63.8,33.8,64.8,33.4,65.4 M38.8,64.4c-0.7,1.1-1.5,1.2-1.9,1.1
						c-0.1,0-0.2-0.1-0.3-0.2l0,0l0,0c-0.1,0-0.2,0-0.2-0.1l-0.1,0l0.1,0.1c0.2,0.2,0.3,0.4,0.5,0.4c0.1,0,0.3,0.1,0.4,0.1
						c0.4,0,1.1-0.2,1.8-1.2c0.6-0.9,1.4-2.2,2.1-3.8l0.1-0.7C40.3,61.9,39.5,63.3,38.8,64.4 M44.8,63.1c-0.7,0.9-1.4,1.3-2,1.1
						c-0.1,0-0.2-0.1-0.3-0.2l0,0l0,0c-0.1,0-0.2,0-0.2,0l-0.1,0l0.1,0.1c0.1,0.2,0.3,0.3,0.5,0.4c0.7,0.3,1.5-0.2,2.2-1.2
						c0.6-0.8,1.4-2.1,2.1-3.6l0.1-0.7C46.4,60.7,45.5,62.2,44.8,63.1 M51.1,61.6c-0.9,1.2-1.7,1.5-2.2,1.3c-0.1,0-0.2-0.1-0.3-0.2
						l0,0l0,0c-0.1,0-0.2,0-0.2,0l-0.1,0l0.1,0.1c0.1,0.2,0.3,0.3,0.5,0.4c0.1,0,0.3,0.1,0.4,0.1c0.6,0,1.4-0.5,2.1-1.4
						c0.6-0.8,1.2-1.8,1.8-3l0.1-0.7C52.5,59.4,51.8,60.6,51.1,61.6 M78,56.3L78,56.3c-1.6,1.2-3.5,1.4-4.4,0.9c0,0,0,0-0.1,0l0,0
						c-0.2,0-0.3-0.1-0.5-0.1c0.2,0.1,0.3,0.3,0.5,0.4c0.3,0.2,0.8,0.3,1.3,0.3c1.1,0,2.3-0.4,3.3-1.2l0,0c0.4-0.3,0.9-0.8,1.4-1.6
						c-0.1,0-0.1-0.1-0.2-0.1C78.8,55.5,78.3,56,78,56.3 M68.1,58.1L68.1,58.1c-0.8,1-1.6,1.4-2.1,1.2c-0.1,0-0.2-0.1-0.3-0.2l0,0
						l0,0c-0.1,0-0.2,0-0.2-0.1l-0.1,0l0.1,0.1c0.1,0.2,0.3,0.3,0.5,0.4c0.1,0.1,0.3,0.1,0.4,0.1c0.6,0,1.3-0.5,2-1.3
						c0.9-1.1,1.8-3,2.4-4.4c0-0.1-0.1-0.2-0.1-0.4C69.9,55,69,56.9,68.1,58.1 M30.5,52.8c0,1.5-0.2,3.3-0.6,5.3
						c-0.9,4-2.3,6.9-4.1,9c0.1,0,0.2,0,0.4-0.1c1.5-1.8,2.9-4.6,3.9-8.9c0.6-3.2,0.7-5.8,0.5-7.8C30.7,51.1,30.6,51.9,30.5,52.8
						 M25,52.2c0,0.5,0,1-0.1,1.5c-0.4,3.4-2.3,6.8-4.6,6.5c-0.3,0-0.5-0.1-0.7-0.2c-0.2,0-0.4,0-0.5-0.1c0.3,0.3,0.8,0.5,1.3,0.5
						c0.1,0,0.1,0,0.2,0c1.9,0,4-2.3,4.6-6.7c0.2-1.5,0.1-2.7,0-3.6C25.1,50.7,25.1,51.4,25,52.2 M83.8,50.6c0,0,0,0.1,0,0.1
						c0,0,0,0,0,0c0,0.2,0.1,0.3,0.1,0.5c0.1,1.3-0.9,2.5-2.1,2.8c0,0,0,0-0.1,0c0.2,0,0.4,0,0.7-0.1c0.1,0,0.1,0,0.2,0
						c0.9-0.5,1.6-1.6,1.5-2.7c0-0.5-0.2-0.9-0.4-1.2l0,0C83.7,50.2,83.8,50.4,83.8,50.6 M36.1,47.9l0,0.2l0.2,0l0,0.1
						c-0.1,0.8-0.5,3.6-0.9,6.1l0,0.2c-0.2,1.7-0.5,3.5-0.7,4.7c0.1-0.2,0.2-0.4,0.3-0.8c0.1-1,0.3-2.4,0.6-3.9
						c0.4-2.7,0.9-5.9,1-6.5l0-0.1L36.1,47.9z M83.3,48.9c0,0.1,0.1,0.1,0.1,0.2c0.3-0.5,0.6-1,1-1.6c0-0.1-0.1-0.2-0.1-0.2
						C83.9,47.9,83.6,48.4,83.3,48.9 M41.6,46.7l0,0.2l0.1,0l0,0.1c0,0.3-0.1,0.9-0.3,2.1l0,0.1c-0.4,2.8-1,7.5-1.3,9.1
						c0,0,0-0.1,0-0.1c0.1-0.2,0.2-0.4,0.3-0.7c0.3-2,0.8-6,1.2-8.4c0.2-1.3,0.3-2.4,0.3-2.4l0,0L41.6,46.7z M60,46.2
						c-0.6,0.9-0.8,2.2-0.8,2.2c-0.6,4.2-1.6,11.5-1.8,12.5l0,0L54,61.6l0.1-0.4l-0.2,0l-0.1,0.6l3.9-0.8l0,0c0,0,0.1-0.5,0.2-1.4
						c0.5-3.3,1.6-10.9,1.7-11.3c0-0.1,0.3-1.3,0.8-2.1l0.1-0.5C60.2,46,60.1,46.1,60,46.2 M47.7,45.4l0,0.2l0.1,0l0,0.1
						c-0.3,2-1.3,9.3-1.6,11.1c0.1-0.2,0.2-0.4,0.3-0.7c0.3-2.4,1.1-8,1.5-10.8l0,0L47.7,45.4z M65.6,45c-0.6,1.2-0.8,1.6-1.1,3.2
						l-1.7,11.5l-3.4,0.7l0.1-0.4l-0.2,0l-0.1,0.6l3.8-0.8l1.7-11.7c0.2-1.3,0.4-1.8,0.9-2.8l0.1-0.6c0,0,0,0,0,0
						C65.7,44.9,65.7,45,65.6,45 M22.5,46.2c0.1,0,0.2,0,0.2,0c0.6-0.7,1.4-1.2,2.1-1.1c0,0,0,0,0.1,0c-0.1-0.1-0.1-0.2-0.2-0.2
						C23.9,44.9,23.1,45.4,22.5,46.2 M59.7,42.9l0,0.2l0.2,0l0,0.2c0.1-0.1,0.2-0.2,0.3-0.3l0-0.1L59.7,42.9z M20.4,42.6
						c-0.3,0.1-0.5,0.2-0.8,0.4l0,0c-0.1,0.1-0.2,0.2-0.2,0.3l-0.1,0.1l0.1-0.1c0.2-0.1,0.3-0.2,0.4-0.2L20,43l-0.2,0.2
						c-0.8,0.9-1.4,1.8-2.3,3.6c0,0,0,0,0,0c0,0,0,0,0,0c0,0,0,0,0,0c-0.1,0.2-0.2,0.4-0.3,0.6c0,0.1-0.1,0.1-0.1,0.2
						c-0.1,0.2-0.1,0.3-0.2,0.5c0,0,0,0.1-0.1,0.1c-1.3,3.2-1.8,7.1-1.5,10.3c0.1,0.6,0.3,1.2,0.4,1.7c-0.3-1.6-0.4-3.5-0.2-5.4
						c0,0,0,0,0,0c0-0.4,0.1-0.7,0.1-1.1v0c0-0.3,0.1-0.7,0.2-1c0,0,0,0,0,0c0.1-0.3,0.1-0.7,0.2-1c0,0,0,0,0,0
						c0.2-0.7,0.3-1.3,0.5-2c0,0,0,0,0,0c0.1-0.3,0.2-0.6,0.3-0.9c0,0,0-0.1,0-0.1c0.1-0.3,0.2-0.5,0.3-0.8c0-0.1,0-0.1,0.1-0.2
						c0.1-0.2,0.2-0.5,0.3-0.7c0,0,0,0,0-0.1l0,0c1.1-2.2,1.7-2.9,2.7-4.1l0.3-0.3L20.4,42.6z M64.7,42.3c0,0.2,0.1,0.4,0.1,0.5
						c0,0,0,0,0,0c0-0.1,0.1-0.1,0.1-0.2c-0.1-0.3-0.2-0.4-0.3-0.6l0,0C64.7,42.2,64.7,42.2,64.7,42.3 M70.5,41.2
						c0.1,0.2,0.1,0.4,0.1,0.6c0.1,0.3,0.1,0.8,0.1,1.2l0,0.1c-0.3,2.2-1.1,7.3-1.3,8.8c0.1-0.2,0.2-0.4,0.3-0.7
						c0.2-1.4,0.6-4,1.2-7.7l0.1-0.5c0.1-0.8-0.1-1.5-0.4-2l0-0.1C70.5,41,70.5,41.1,70.5,41.2 M48.3,40.9c0,0.1,0,0.3,0,0.4
						c0,0.1,0.1,0.3,0.1,0.4c0.1,1.2-0.8,2.3-1.9,2.5c-0.4,0.1-0.8,0-1.2-0.2c-0.2,0-0.3,0-0.5-0.1c0,0,0.1,0.1,0.1,0.1
						c0.3,0.2,0.7,0.4,1,0.4c0,0,0.5,0,1-0.2c0.9-0.4,1.6-1.5,1.5-2.6c0-0.4-0.1-0.7-0.3-1C48.3,40.8,48.3,40.8,48.3,40.9
						 M81.6,40.9L81.6,40.9c0,0.2,0.1,0.4,0.1,0.6c0.3,1.5,0.1,3.4-0.2,4.3c-0.8,2-2.1,4.4-6,4.8l-0.1,0l0,0.1
						c-0.1,0.4-0.1,0.8-0.1,0.9c0,0.1-0.2,1.4-0.2,2.3c0.1,0.2,0.1,0.3,0.2,0.4c0,0,0,0,0,0c-0.1-0.7,0.1-2.4,0.2-2.7l0,0
						c0,0,0-0.4,0.1-0.8l0,0l0,0c1.5-0.2,2.7-0.6,3.6-1.4c0.1-0.1,0.2-0.2,0.3-0.3c1.1-1,1.7-2.4,2.1-3.3c0.5-1.3,0.7-4.1-0.2-5.8
						C81.5,40.3,81.5,40.6,81.6,40.9 M77.3,39.7c-0.2,0.2-0.4,0.5-0.5,0.8c-0.1,0.3-0.1,0.5-0.2,0.9l0,0c-0.1,0.8-0.6,4.6-1,7.3
						c0.1,0,0.1,0,0.2,0c0.4-2.8,0.9-6.8,1-7.3l0,0c0-0.3,0.1-0.6,0.2-0.8c0.1-0.3,0.2-0.6,0.4-0.7c0.1,0,0.1-0.1,0.2-0.1l0,0l0,0
						c0,0,0-0.1,0-0.1c0,0,0-0.1,0-0.1C77.5,39.6,77.4,39.6,77.3,39.7 M54.6,38.1l0,0.2l0.2,0l0,0.1c-0.3,2.1-2.2,15.6-2.4,17.2
						l0,0.1c0,0,0,0.1,0,0.1c0.1-0.2,0.2-0.4,0.3-0.6l0-0.1c0.2-1.7,2.3-16.1,2.4-16.8l0-0.2L54.6,38.1z M86.5,37.7
						c-0.5,0.3-0.7,0.8-0.7,1.6c0.1,0.3,0.2,0.6,0.3,0.9c0,0,0,0,0,0c-0.3-1.2-0.2-1.9,0.4-2.2c0,0,0,0,0.1,0c0,0,0,0,0,0
						c0-0.1,0-0.1-0.1-0.2l0,0C86.6,37.7,86.6,37.7,86.5,37.7 M88.3,37.4c0,0.1,0.1,0.2,0.1,0.3c0,0.1,0,0.2,0,0.3c0,0,0,0.1,0,0.2
						c0,0,0,0,0,0c0,0,0,0.1,0,0.1c0.2,1.1-0.6,2.8-1.4,4c0.5,1.2,1.1,2.9,1.4,4.4c0.1,0.5,0.2,0.9,0.2,1.4c0.1,0.3,0.1,0.7,0.1,0.9
						c0.2,3.7-2.9,6.3-5.9,6.8c-0.8,0.1-1.6,0-2.1-0.3l0,0c0,0,0,0,0,0c-0.2,0-0.3-0.1-0.5-0.1c0.6,0.6,1.5,0.9,2.7,0.7
						c1.9-0.3,3.5-1.2,4.6-2.6c1.1-1.3,1.6-2.9,1.5-4.4c-0.2-2.8-1.7-6.1-1.8-6.5l0,0l0,0c0.8-1.3,1.7-3,1.4-4.2
						C88.7,38,88.6,37.7,88.3,37.4L88.3,37.4C88.3,37.4,88.3,37.4,88.3,37.4"/>
				</defs>
				<clipPath id="SVGID_00000127042524217247048380000000081024247442706304_">
					<use xlink:href="#SVGID_1_"  style="overflow:visible;"/>
				</clipPath>
				<g style="clip-path:url(#SVGID_00000127042524217247048380000000081024247442706304_);">
					<defs>
						<rect id="SVGID_00000135676184071387420530000000816172850727378621_" x="-78.7" y="-33.6" width="257.4" height="180.2"/>
					</defs>
					<clipPath id="SVGID_00000155118743624760666760000018118933932921811113_">
						<use xlink:href="#SVGID_00000135676184071387420530000000816172850727378621_"  style="overflow:visible;"/>
					</clipPath>
					<g style="clip-path:url(#SVGID_00000155118743624760666760000018118933932921811113_);">
						<g>
							<defs>
								<rect id="SVGID_00000179606094366617924120000012091820039398099127_" x="-78.7" y="-33.6" width="257.4" height="180.2"/>
							</defs>
							<clipPath id="SVGID_00000039116373993600200310000018347202756523123383_">
								<use xlink:href="#SVGID_00000179606094366617924120000012091820039398099127_"  style="overflow:visible;"/>
							</clipPath>
							<g style="clip-path:url(#SVGID_00000039116373993600200310000018347202756523123383_);">
								<defs>
									<rect id="SVGID_00000122682973777833636620000015126782819509969596_" x="-78.7" y="-33.6" width="257.4" height="180.2"/>
								</defs>
								<clipPath id="SVGID_00000076595380029538608950000007558472621280531845_">
									<use xlink:href="#SVGID_00000122682973777833636620000015126782819509969596_"  style="overflow:visible;"/>
								</clipPath>
								<g style="clip-path:url(#SVGID_00000076595380029538608950000007558472621280531845_);">
									
										<image style="overflow:visible;" width="1074" height="751" xlink:href="A9E7BFCD.jpg"  transform="matrix(0.24 0 0 0.24 -78.9178 -33.5849)">
									</image>
								</g>
							</g>
						</g>
					</g>
				</g>
			</g>
		</g>
		<g>
			<path class="st6" d="M48.2,21l-0.2,0c-0.4,0.1-0.6,0.4-0.6,0.8v4.3c0,0.4,0.2,0.6,0.6,0.5l0.2,0c0.4-0.1,0.6-0.4,0.6-0.8v-1.5
				l-0.2,0v1.6c0,0.3-0.1,0.4-0.4,0.5l-0.2,0c-0.3,0.1-0.4,0-0.4-0.3v-4.3c0-0.3,0.1-0.5,0.4-0.5l0.1,0c0.3-0.1,0.4,0,0.4,0.3v1.5
				l0.2,0v-1.5C48.9,21.1,48.6,21,48.2,21z"/>
			<polygon class="st6" points="49.9,20.7 49.7,20.8 49.7,26.3 50.8,26 50.8,25.8 49.9,26 			"/>
			<polygon class="st6" points="52.6,19.1 52.4,19.1 52.1,19.6 52.2,19.6 			"/>
			<path class="st6" d="M52,20.3l-0.7,5.7l0.2,0l0.1-1.2l0.9-0.2l0.1,1.1l0.2,0l-0.7-5.4L52,20.3z M51.7,24.5l0.4-3.7l0.4,3.5
				L51.7,24.5z"/>
			<path class="st6" d="M57.9,19l-0.2,0c-0.4,0.1-0.6,0.4-0.6,0.8v4.3c0,0.4,0.2,0.6,0.6,0.5l0.2,0c0.4-0.1,0.6-0.4,0.6-0.8v-1.5
				l-0.2,0v1.6c0,0.3-0.1,0.4-0.4,0.5l-0.2,0c-0.3,0.1-0.4,0-0.4-0.3v-4.3c0-0.3,0.1-0.5,0.4-0.5l0.1,0c0.3-0.1,0.4,0,0.4,0.3v1.5
				l0.2,0v-1.5C58.5,19.1,58.3,19,57.9,19z"/>
			<path class="st6" d="M60.1,18.6l-0.2,0l-0.7,5.7l0.2,0l0.1-1.2l0.9-0.2l0.1,1.1l0.2,0L60.1,18.6z M59.6,22.8l0.4-3.7l0.4,3.5
				L59.6,22.8z"/>
			<polygon class="st6" points="55.9,25 56.2,24.9 56.2,19.4 55.9,19.5 			"/>
			<path class="st6" d="M54.7,22.6l-0.6-0.4c-0.2-0.1-0.2-0.2-0.2-0.5v-1.2c0-0.3,0.1-0.4,0.4-0.5l0.1,0c0.3-0.1,0.4,0.1,0.4,0.3
				v1.4l0.2,0v-1.4c0-0.4-0.2-0.6-0.6-0.5l-0.1,0c-0.4,0.1-0.6,0.4-0.6,0.8v1.2c0,0.3,0.1,0.5,0.3,0.7l0.6,0.4
				c0.2,0.1,0.2,0.2,0.2,0.5v1.3c0,0.3-0.1,0.4-0.4,0.5l-0.1,0c-0.3,0.1-0.4-0.1-0.4-0.3v-1.5l-0.2,0v1.5c0,0.4,0.2,0.6,0.6,0.5
				l0.1,0c0.4-0.1,0.6-0.4,0.6-0.8v-1.3C55.1,22.9,55,22.7,54.7,22.6z"/>
			<path class="st6" d="M43.8,21.1c-2-1.4-4.8-1-6.2,1c-1.4,2-1,4.8,1,6.2c2,1.4,4.8,1,6.2-1C46.2,25.3,45.8,22.5,43.8,21.1z
				 M39.8,22.3C39.8,22.3,39.8,22.3,39.8,22.3c0.1-0.1,0.1-0.1,0.2-0.1l0.8,0.5l0-0.7c0-0.3,0.1-0.5,0.2-0.7c0,0,0-0.1,0.1-0.1
				c0,0,0.1,0,0.1,0c0.1,0.2,0.2,0.3,0.2,0.7l0,0.7l0.8-0.9c0,0,0.1,0,0.1,0c0,0,0.1,0,0.1,0.1c0,0.2,0.1,0.5-0.3,1
				c-0.3,0.4-0.5,0.6-0.7,0.8l0,0.2c0,0,0,0.1,0,0.1l-0.2,0.2c0,0,0,0-0.1,0c0,0,0,0,0,0c0,0,0,0-0.1,0L40.9,24c0,0,0,0,0-0.1l0-0.2
				c-0.2-0.1-0.5-0.2-0.7-0.5C39.7,22.9,39.8,22.5,39.8,22.3z M42.1,26c-0.3,0.4-0.5,0.6-0.7,0.8l0,0.9c0,0.1-0.1,0.2-0.3,0.3
				c0,0-0.1,0-0.1,0c-0.1,0-0.1,0-0.1,0c0,0-0.1-0.1-0.1-0.2l0-0.9c-0.2-0.1-0.5-0.2-0.7-0.5c-0.4-0.3-0.3-0.7-0.3-0.9
				c0,0,0-0.1,0.1-0.1c0,0,0.1,0,0.1,0l1.1,0.7l1.1-1.2c0,0,0.1,0,0.1,0c0,0,0.1,0,0.1,0.1C42.4,25.2,42.5,25.6,42.1,26z M42.3,24.2
				c-0.3,0.4-0.7,0.8-0.9,1l0,0.3c0,0,0,0.1,0,0.1l-0.2,0.2c0,0,0,0-0.1,0c0,0,0,0,0,0c0,0,0,0-0.1,0l-0.2-0.1c0,0,0,0,0-0.1l0-0.2
				c-0.3-0.1-0.6-0.3-0.9-0.6c-0.3-0.3-0.4-0.7-0.4-0.9c0,0,0-0.1,0.1-0.1c0,0,0.1,0,0.1,0l1.4,0.8l1.4-1.4c0,0,0.1,0,0.1,0
				c0,0,0.1,0,0.1,0.1C42.7,23.4,42.6,23.8,42.3,24.2z"/>
		</g>
	</g>
</g>
</svg>
